<svg width="296" height="840" viewBox="0 0 296 840" fill="none" xmlns="http://www.w3.org/2000/svg">
<path opacity="0.5" fill-rule="evenodd" clip-rule="evenodd" d="M14.9586 431.194C211.999 147.404 -11.9911 -261.106 -351.162 -266.89C-503.759 -269.497 -634.67 -194.646 -760.541 -117.635C-860.496 -56.4787 -948.679 -108.294 -1041.67 -163.873C-1182.39 -247.967 -1259.77 -403.237 -1424.94 -451.816C-1553.09 -489.515 -1698.64 -462.896 -1797.91 -355.675C-1910.14 -234.471 -1886.3 -62.0806 -1773.03 32.331C-1680.02 109.846 -1564.13 120.438 -1450.71 151.144C-1353.26 177.523 -1267.15 230.016 -1258.12 342.599C-1254.58 386.71 -1268.98 431.185 -1280.19 474.966C-1315.48 612.793 -1290.6 751.192 -1161.72 813.507C-1055.48 864.883 -917.681 839.87 -836.029 740.121C-779.871 671.509 -703.249 603.294 -612.734 588.326C-527.682 574.267 -449.909 605.768 -365.03 607.241C-275.574 608.797 -185.101 589.211 -107.453 543.842C-56.3342 513.972 -15.6898 475.346 14.9586 431.194Z" fill="url(#paint0_linear_4_4)"/>
<g opacity="0.3">
<path fill-rule="evenodd" clip-rule="evenodd" d="M218.225 242.689C235.908 253.14 241.773 275.948 231.325 293.634C220.872 311.32 198.064 317.185 180.378 306.737C162.691 296.284 156.827 273.475 167.275 255.79C177.728 238.103 200.536 232.238 218.225 242.689L218.225 242.689Z" fill="url(#paint1_linear_4_4)"/>
<path opacity="0.5" fill-rule="evenodd" clip-rule="evenodd" d="M129.876 385.511C107.175 442.896 42.2519 471.018 -15.1377 448.326C-72.5321 425.621 -100.654 360.698 -77.962 303.308C-55.2566 245.914 9.66619 217.792 67.0562 240.484C124.45 263.19 152.572 328.112 129.876 385.511L129.876 385.511Z" fill="url(#paint2_linear_4_4)"/>
<path opacity="0.2" fill-rule="evenodd" clip-rule="evenodd" d="M138.654 224.012C146.218 228.482 148.726 238.238 144.257 245.802C139.786 253.367 130.031 255.876 122.466 251.407C114.902 246.936 112.393 237.18 116.862 229.616C121.333 222.051 131.089 219.542 138.654 224.012L138.654 224.012Z" fill="url(#paint3_linear_4_4)"/>
</g>
<defs>
<linearGradient id="paint0_linear_4_4" x1="-1871.01" y1="-468" x2="-1871.01" y2="839.49" gradientUnits="userSpaceOnUse">
<stop stop-color="white"/>
<stop offset="1" stop-color="#0083B9"/>
</linearGradient>
<linearGradient id="paint1_linear_4_4" x1="147.346" y1="282.933" x2="207.529" y2="326.658" gradientUnits="userSpaceOnUse">
<stop stop-color="white"/>
<stop offset="1" stop-color="#0083B9"/>
</linearGradient>
<linearGradient id="paint2_linear_4_4" x1="-22.8874" y1="194.085" x2="-124.363" y2="393.243" gradientUnits="userSpaceOnUse">
<stop stop-color="white"/>
<stop offset="1" stop-color="#0083B9"/>
</linearGradient>
<linearGradient id="paint3_linear_4_4" x1="108.343" y1="241.225" x2="134.078" y2="259.923" gradientUnits="userSpaceOnUse">
<stop stop-color="white"/>
<stop offset="1" stop-color="#0083B9"/>
</linearGradient>
</defs>
</svg>
