<svg width="906" height="899" viewBox="0 0 906 899" fill="none" xmlns="http://www.w3.org/2000/svg">
<path fill-rule="evenodd" clip-rule="evenodd" d="M2061.01 -13.822C2172.2 -340.932 1844.28 -671.88 1516.66 -583.952C1369.25 -544.396 1264.04 -436.36 1164.28 -327.638C1085.05 -241.298 986.002 -266.8 881.297 -294.596C722.844 -336.644 605.668 -464.573 433.502 -465.742C299.92 -466.657 167.355 -400.952 101.479 -270.52C27.0084 -123.076 97.4408 36.0667 232.345 95.6005C343.122 144.476 457.436 122.715 574.933 120.967C675.878 119.464 773.124 146.188 812.833 251.922C828.396 293.349 826.807 340.072 828.105 385.245C832.165 527.464 894.238 653.642 1035.3 678.021C1151.59 698.122 1277.15 636.096 1328.14 517.704C1363.22 436.271 1418.07 349.578 1500.95 310.24C1578.83 273.282 1662.27 282.126 1744.27 260.146C1830.69 236.984 1912.26 193.219 1974.39 128.205C2015.3 85.4008 2043.72 37.0684 2061.01 -13.822Z" fill="url(#paint0_linear_4_3)"/>
<path opacity="0.19" fill-rule="evenodd" clip-rule="evenodd" d="M1719.64 -57.8054C1792.42 -305.602 1537.11 -542.494 1295.18 -466.539C1186.33 -432.37 1111.14 -348.375 1040.04 -264.041C983.574 -197.069 908.788 -213.008 829.714 -230.48C710.054 -256.915 618.516 -348.782 489.893 -344.254C390.091 -340.74 293.149 -287.511 248.038 -188.025C197.045 -75.563 254.641 41.0914 357.27 81.3149C441.543 114.346 526.24 94.5045 613.941 89.5122C689.288 85.224 762.757 102.127 795.735 179.849C808.655 210.304 808.941 245.249 811.319 278.947C818.821 385.04 869.147 477.334 975.264 491.115C1062.75 502.48 1154.58 452.213 1188.96 362.18C1212.6 300.261 1250.84 233.795 1311.51 201.814C1368.52 171.76 1431.12 175.746 1491.67 156.76C1555.49 136.744 1615.04 101.498 1659.41 50.9913C1688.62 17.7373 1708.32 -19.2508 1719.64 -57.8054Z" fill="#E4E4E4"/>
<defs>
<linearGradient id="paint0_linear_4_3" x1="0.258059" y1="-358.34" x2="360.648" y2="898.491" gradientUnits="userSpaceOnUse">
<stop stop-color="white"/>
<stop offset="1" stop-color="#0083B9"/>
</linearGradient>
</defs>
</svg>
