<svg width="335" height="552" viewBox="0 0 335 552" fill="none" xmlns="http://www.w3.org/2000/svg">
<g opacity="0.2">
<path fill-rule="evenodd" clip-rule="evenodd" d="M12.1915 424.869C22.4308 482.679 68.4665 539.263 128.323 549.884C189.516 560.746 251.329 525.177 295.599 487.317C354.403 437.01 405.466 367.325 427.633 292.51C442.109 243.657 445.047 188.473 442.686 137.434C442.349 130.093 441.72 122.752 440.723 115.466C436.462 84.1179 425.139 53.0935 404.335 29.2487C386.094 8.35474 356.976 -8.86121 329.844 5.33895C311.299 15.0512 298.302 32.7118 287.669 50.7366C275.805 70.8657 262.992 90.0993 250.732 109.866C233.523 137.615 216.653 166.084 193.284 188.895C173.445 208.258 149.173 223.24 124.557 235.744C103.911 246.242 81.9358 255.653 64.1907 270.889C21.1385 307.85 2.43018 369.716 12.1915 424.869L12.1915 424.869Z" fill="url(#paint0_linear_0_2631)"/>
<path fill-rule="evenodd" clip-rule="evenodd" d="M6.36683 137.529C-11.8642 91.0486 11.0318 38.5865 57.5079 20.3487C103.994 2.11553 156.454 25.0143 174.693 71.4928C192.926 117.981 170.03 170.443 123.554 188.682C77.0679 206.914 24.6079 184.016 6.36683 137.529Z" fill="url(#paint1_linear_0_2631)"/>
</g>
<defs>
<linearGradient id="paint0_linear_0_2631" x1="537.975" y1="446.936" x2="404.889" y2="-17.1902" gradientUnits="userSpaceOnUse">
<stop stop-color="white"/>
<stop offset="1" stop-color="#0083B9"/>
</linearGradient>
<linearGradient id="paint1_linear_0_2631" x1="202.364" y1="166.5" x2="152.521" y2="-7.32526" gradientUnits="userSpaceOnUse">
<stop stop-color="white"/>
<stop offset="1" stop-color="#0083B9"/>
</linearGradient>
</defs>
</svg>
