<svg width="509" height="1338" viewBox="0 0 509 1338" fill="none" xmlns="http://www.w3.org/2000/svg">
<path opacity="0.2" fill-rule="evenodd" clip-rule="evenodd" d="M-107.021 125.246C-302.39 77.3573 -477.703 284.345 -410.079 469.91C-379.656 553.399 -311.655 608.939 -243.532 661.288C-189.434 702.859 -199.199 761.602 -210.008 823.743C-226.356 917.781 -294.61 992.236 -286.552 1092.15C-280.303 1169.68 -235.467 1243.23 -156.472 1274.82C-67.1742 1310.54 21.5563 1261.61 49.2408 1180.34C71.9677 1113.61 53.5454 1048.41 46.5693 980.35C40.5751 921.877 51.1407 864.118 110.452 835.72C133.69 824.591 160.871 823.142 187.006 820.097C269.289 810.525 339.323 768.12 346.305 685.066C352.063 616.597 309.716 546.917 238.459 523.347C189.447 507.138 136.381 479.723 109.359 433.646C83.9709 390.349 84.8664 341.502 67.9567 295.058C50.1372 246.11 20.6139 201.019 -20.2483 168.279C-47.1505 146.726 -76.6264 132.693 -107.021 125.246Z" fill="url(#paint0_linear_0_2625)"/>
<g opacity="0.5">
<path fill-rule="evenodd" clip-rule="evenodd" d="M392.714 940.691C404.024 954.952 401.633 975.682 387.373 986.995C373.11 998.306 352.379 995.915 341.067 981.656C329.755 967.392 332.146 946.662 346.406 935.349C360.669 924.038 381.4 926.429 392.714 940.691Z" fill="url(#paint1_linear_0_2625)"/>
<path opacity="0.5" fill-rule="evenodd" clip-rule="evenodd" d="M274.269 1030.79C237.266 1071.05 174.625 1073.7 134.354 1036.7C94.0827 999.693 91.4351 937.052 128.433 896.781C165.443 856.51 228.083 853.862 268.355 890.86C308.626 927.871 311.274 990.511 274.269 1030.79Z" fill="url(#paint2_linear_0_2625)"/>
<path opacity="0.2" fill-rule="evenodd" clip-rule="evenodd" d="M332.815 899.975C337.652 906.074 336.629 914.941 330.531 919.779C324.43 924.617 315.564 923.594 310.726 917.495C305.888 911.395 306.911 902.529 313.009 897.691C319.11 892.853 327.976 893.875 332.815 899.975L332.815 899.975Z" fill="url(#paint3_linear_0_2625)"/>
</g>
<defs>
<linearGradient id="paint0_linear_0_2625" x1="-202.274" y1="1338" x2="508.424" y2="1065.19" gradientUnits="userSpaceOnUse">
<stop stop-color="white"/>
<stop offset="1" stop-color="#0083B9"/>
</linearGradient>
<linearGradient id="paint1_linear_0_2625" x1="321.292" y1="951.48" x2="357.195" y2="1006.77" gradientUnits="userSpaceOnUse">
<stop stop-color="white"/>
<stop offset="1" stop-color="#0083B9"/>
</linearGradient>
<linearGradient id="paint2_linear_0_2625" x1="208.688" y1="823.922" x2="61.501" y2="956.45" gradientUnits="userSpaceOnUse">
<stop stop-color="white"/>
<stop offset="1" stop-color="#0083B9"/>
</linearGradient>
<linearGradient id="paint3_linear_0_2625" x1="302.278" y1="904.585" x2="317.632" y2="928.228" gradientUnits="userSpaceOnUse">
<stop stop-color="white"/>
<stop offset="1" stop-color="#0083B9"/>
</linearGradient>
</defs>
</svg>
