<svg width="309" height="567" viewBox="0 0 309 567" fill="none" xmlns="http://www.w3.org/2000/svg">
<path opacity="0.2" fill-rule="evenodd" clip-rule="evenodd" d="M282.469 17.8251C311.375 6.48724 344.001 20.7256 355.343 49.6281C366.682 78.5367 352.441 111.161 323.536 122.503C294.625 133.843 261.999 119.604 250.657 90.7018C239.318 61.7931 253.559 29.1691 282.469 17.8251L282.469 17.8251Z" fill="url(#paint0_linear_4_7)"/>
<path opacity="0.2" fill-rule="evenodd" clip-rule="evenodd" d="M186.171 95.2292C198.533 90.3802 212.487 96.4704 217.338 108.832C222.187 121.197 216.097 135.15 203.735 140.001C191.371 144.851 177.417 138.761 172.566 126.399C167.717 114.034 173.807 100.081 186.171 95.2292Z" fill="url(#paint1_linear_4_7)"/>
<path opacity="0.5" fill-rule="evenodd" clip-rule="evenodd" d="M370.376 255.976C417.606 336.425 390.684 439.933 310.241 487.177C229.78 534.414 126.271 507.491 79.0273 427.05C31.7906 346.588 58.7132 243.079 139.155 195.835C219.617 148.599 323.125 175.521 370.376 255.976Z" fill="url(#paint2_linear_4_7)"/>
<defs>
<linearGradient id="paint0_linear_4_7" x1="264.451" y1="139.71" x2="372.545" y2="108.714" gradientUnits="userSpaceOnUse">
<stop stop-color="white"/>
<stop offset="1" stop-color="#0083B9"/>
</linearGradient>
<linearGradient id="paint1_linear_4_7" x1="178.467" y1="147.347" x2="224.694" y2="134.092" gradientUnits="userSpaceOnUse">
<stop stop-color="white"/>
<stop offset="1" stop-color="#0083B9"/>
</linearGradient>
<linearGradient id="paint2_linear_4_7" x1="0.196882" y1="259.792" x2="142.987" y2="566.006" gradientUnits="userSpaceOnUse">
<stop stop-color="white"/>
<stop offset="1" stop-color="#0083B9"/>
</linearGradient>
</defs>
</svg>
