<svg width="835" height="682" viewBox="0 0 835 682" fill="none" xmlns="http://www.w3.org/2000/svg">
<path fill-rule="evenodd" clip-rule="evenodd" d="M1990.01 -13.822C2101.2 -340.932 1773.28 -671.88 1445.66 -583.952C1298.25 -544.396 1193.04 -436.36 1093.28 -327.638C1014.05 -241.298 915.002 -266.8 810.297 -294.596C651.844 -336.644 534.668 -464.573 362.502 -465.742C228.92 -466.657 96.3546 -400.952 30.4787 -270.52C-43.9916 -123.076 26.4408 36.0666 161.345 95.6004C272.122 144.476 386.436 122.715 503.933 120.967C604.878 119.464 702.124 146.188 741.833 251.922C757.396 293.349 755.807 340.072 757.105 385.245C761.165 527.464 823.238 653.642 964.298 678.021C1080.59 698.122 1206.15 636.096 1257.14 517.704C1292.22 436.271 1347.07 349.578 1429.95 310.24C1507.83 273.282 1591.27 282.126 1673.27 260.146C1759.69 236.984 1841.26 193.219 1903.39 128.204C1944.3 85.4008 1972.72 37.0684 1990.01 -13.822Z" fill="url(#paint0_linear_0_5245)"/>
<defs>
<linearGradient id="paint0_linear_0_5245" x1="-70.7419" y1="-358.34" x2="289.648" y2="898.491" gradientUnits="userSpaceOnUse">
<stop stop-color="white"/>
<stop offset="1" stop-color="#0083B9"/>
</linearGradient>
</defs>
</svg>
